<?xml version="1.0" encoding="UTF-8" standalone="no"?>
<!DOCTYPE svg PUBLIC "-//W3C//DTD SVG 1.1//EN" "http://www.w3.org/Graphics/SVG/1.1/DTD/svg11.dtd">
<svg width="100%" height="100%" viewBox="0 0 605 709" version="1.1" xmlns="http://www.w3.org/2000/svg" xmlns:xlink="http://www.w3.org/1999/xlink" xml:space="preserve" xmlns:serif="http://www.serif.com/" style="fill-rule:evenodd;clip-rule:evenodd;stroke-linejoin:round;stroke-miterlimit:2;">
    <g transform="matrix(1,0,0,1,-288.074,-1552.57)">
        <g transform="matrix(1,0,0,1,0,1316.35)">
            <g transform="matrix(1,0,0,1,0,-1316.35)">
                <path d="M702.9,1984.68L702.9,2226.66C702.9,2245.76 687.43,2261.23 668.331,2261.23L322.643,2261.23C303.543,2261.23 288.074,2245.76 288.074,2226.66L288.074,1602.09C288.074,1574.73 303.543,1552.57 322.643,1552.57L668.331,1552.57C687.43,1552.57 702.9,1574.73 702.9,1602.09L702.9,1794.55L858.46,1794.55C877.524,1794.55 893.029,1810.05 893.029,1829.12L893.029,1950.11C893.029,1969.17 877.524,1984.68 858.46,1984.68L702.9,1984.68ZM665.485,1794.55L665.485,1676.4L325.489,1676.4L325.489,2223.81L665.485,2223.81L665.485,1998.3L587.834,2075.95C581.041,2082.75 569.429,2077.94 569.429,2068.33L569.429,1984.68L495.487,1984.68C476.422,1984.68 460.918,1969.17 460.918,1950.11L460.918,1829.12C460.918,1810.05 476.422,1794.55 495.487,1794.55L665.485,1794.55ZM495.487,1950.11L858.46,1950.11L858.46,1829.12L495.487,1829.12L495.487,1950.11ZM328.515,1590.07C327.392,1592.93 325.574,1598.18 325.574,1602.09L325.574,1638.88L665.4,1638.88L665.4,1602.09C665.4,1598.18 663.581,1592.93 662.459,1590.07L328.515,1590.07ZM555.982,1601.51C563.138,1601.51 568.946,1607.32 568.946,1614.48C568.946,1621.63 563.138,1627.44 555.982,1627.44L469.56,1627.44C462.404,1627.44 456.597,1621.63 456.597,1614.48C456.597,1607.32 462.404,1601.51 469.56,1601.51L555.982,1601.51ZM426.349,1601.51C433.504,1601.51 439.312,1607.32 439.312,1614.48C439.312,1621.63 433.504,1627.44 426.349,1627.44C419.194,1627.44 413.386,1621.63 413.386,1614.48C413.386,1607.32 419.194,1601.51 426.349,1601.51ZM676.973,1863.69C691.283,1863.69 702.9,1875.3 702.9,1889.61C702.9,1903.92 691.283,1915.54 676.973,1915.54C662.664,1915.54 651.047,1903.92 651.047,1889.61C651.047,1875.3 662.664,1863.69 676.973,1863.69ZM780.68,1863.69C794.989,1863.69 806.606,1875.3 806.606,1889.61C806.606,1903.92 794.989,1915.54 780.68,1915.54C766.371,1915.54 754.753,1903.92 754.753,1889.61C754.753,1875.3 766.371,1863.69 780.68,1863.69ZM573.267,1863.69C587.576,1863.69 599.193,1875.3 599.193,1889.61C599.193,1903.92 587.576,1915.54 573.267,1915.54C558.957,1915.54 547.34,1903.92 547.34,1889.61C547.34,1875.3 558.957,1863.69 573.267,1863.69Z" style="fill:rgb(10,59,97);"/>
            </g>
        </g>
    </g>
</svg>
